<svg width="625" height="116" viewBox="0 0 625 116" fill="none" xmlns="http://www.w3.org/2000/svg">
<path d="M57.1285 11.6881C52.1884 11.6881 48.1836 15.6929 48.1836 20.633C48.1836 25.5732 52.1884 29.578 57.1285 29.578C62.0687 29.578 66.0735 25.5732 66.0735 20.633C66.0735 15.6929 62.0687 11.6881 57.1285 11.6881ZM57.1285 25.1055C54.6585 25.1055 52.6561 23.1031 52.6561 20.633C52.6561 18.163 54.6585 16.1606 57.1285 16.1606C59.5986 16.1606 61.601 18.163 61.601 20.633C61.601 23.1031 59.5986 25.1055 57.1285 25.1055Z" fill="white"/>
<path d="M103.046 57.5724C103.027 52.6323 99.0064 48.6431 94.0663 48.6622C89.1262 48.6813 85.1369 52.7016 85.156 57.6417C85.1752 62.5818 89.1954 66.5711 94.1356 66.552C99.0757 66.5328 103.065 62.5126 103.046 57.5724ZM89.6285 57.6244C89.6189 55.1543 91.6135 53.1442 94.0836 53.1346C96.5537 53.1251 98.5638 55.1197 98.5734 57.5898C98.5829 60.0598 96.5883 62.07 94.1182 62.0795C91.6482 62.0891 89.638 60.0945 89.6285 57.6244Z" fill="white"/>
<path d="M57.1285 85.633C52.1884 85.633 48.1836 89.6378 48.1836 94.578C48.1836 99.5182 52.1884 103.523 57.1285 103.523C62.0687 103.523 66.0735 99.5182 66.0735 94.578C66.0735 89.6378 62.0687 85.633 57.1285 85.633ZM57.1285 99.0505C54.6585 99.0505 52.6561 97.0481 52.6561 94.578C52.6561 92.1079 54.6585 90.1055 57.1285 90.1055C59.5986 90.1055 61.601 92.1079 61.601 94.578C61.601 97.0481 59.5986 99.0505 57.1285 99.0505Z" fill="white"/>
<path d="M29.1009 57.5693C29.0817 52.6292 25.0615 48.64 20.1213 48.6591C15.1812 48.6782 11.192 52.6985 11.2111 57.6386C11.2302 62.5787 15.2505 66.568 20.1906 66.5489C25.1307 66.5297 29.12 62.5095 29.1009 57.5693ZM15.6835 57.6213C15.674 55.1512 17.6686 53.1411 20.1387 53.1315C22.6087 53.122 24.6189 55.1166 24.6284 57.5867C24.638 60.0567 22.6434 62.0669 20.1733 62.0764C17.7032 62.086 15.6931 60.0914 15.6835 57.6213Z" fill="white"/>
<path d="M36.4665 74.8303C37.8084 79.2649 40.5415 83.1502 44.2618 85.9117C47.9822 88.6732 52.4923 90.1645 57.1255 90.1652C61.7587 90.1658 66.2692 88.6757 69.9903 85.9152C73.7114 83.1546 76.4455 79.2702 77.7886 74.8359L72.5203 73.2401C71.5197 76.5437 69.4827 79.4376 66.7105 81.4942C63.9383 83.5508 60.578 84.6609 57.1262 84.6604C53.6745 84.66 50.3145 83.5489 47.5428 81.4916C44.7712 79.4343 42.735 76.5398 41.7353 73.2359L36.4665 74.8303Z" fill="white"/>
<path d="M74.1187 37.1695C78.5544 38.5127 82.4401 41.2479 85.201 44.9704C87.962 48.6929 89.4516 53.2051 89.4495 57.8397C89.4475 62.4744 87.9539 66.9853 85.1897 70.7054C82.4254 74.4254 78.5374 77.1571 74.1004 78.4964L72.5097 73.2265C75.8152 72.2287 78.7118 70.1936 80.7712 67.4222C82.8305 64.6507 83.9433 61.2901 83.9448 57.8373C83.9463 54.3845 82.8366 51.0229 80.7797 48.2496C78.7228 45.4763 75.828 43.4387 72.5234 42.438L74.1187 37.1695Z" fill="white"/>
<path d="M40.16 37.1906C35.7213 38.5295 31.8316 41.262 29.0666 44.9836C26.3016 48.7051 24.8081 53.218 24.8074 57.8543C24.8066 62.4906 26.2985 67.0039 29.0623 70.7264C31.8261 74.4488 35.7149 77.1826 40.1532 78.5231L41.7448 73.2534C38.4382 72.2548 35.5411 70.2181 33.482 67.4449C31.423 64.6717 30.3115 61.3092 30.3121 57.8552C30.3127 54.4011 31.4253 51.039 33.4852 48.2665C35.5451 45.4939 38.443 43.4583 41.7498 42.4607L40.16 37.1906Z" fill="white"/>
<path d="M36.4646 40.8642C37.8047 36.4306 40.5353 32.5456 44.253 29.783C47.9707 27.0205 52.4783 25.5269 57.1101 25.523C61.7418 25.519 66.252 27.0049 69.9744 29.7611C73.6968 32.5173 76.4339 36.3977 77.7816 40.8291L72.515 42.4307C71.511 39.1294 69.4718 36.2385 66.6986 34.1851C63.9255 32.1317 60.5654 31.0247 57.1147 31.0277C53.6641 31.0306 50.3059 32.1433 47.5362 34.2014C44.7665 36.2595 42.7322 39.1539 41.7339 42.4569L36.4646 40.8642Z" fill="white"/>
<path d="M190.088 48.718H184.207C183.859 47.0265 183.251 45.5405 182.381 44.26C181.527 42.9795 180.484 41.9045 179.251 41.0351C178.034 40.1498 176.682 39.4858 175.196 39.0432C173.71 38.6006 172.161 38.3792 170.548 38.3792C167.608 38.3792 164.944 39.1222 162.557 40.6082C160.186 42.0942 158.297 44.2837 156.89 47.1767C155.499 50.0696 154.803 53.6186 154.803 57.8237C154.803 62.0287 155.499 65.5778 156.89 68.4707C158.297 71.3637 160.186 73.5531 162.557 75.0391C164.944 76.5251 167.608 77.2681 170.548 77.2681C172.161 77.2681 173.71 77.0468 175.196 76.6042C176.682 76.1615 178.034 75.5055 179.251 74.636C180.484 73.7507 181.527 72.6679 182.381 71.3874C183.251 70.0911 183.859 68.6051 184.207 66.9294H190.088C189.645 69.4113 188.839 71.6324 187.669 73.5927C186.499 75.5529 185.045 77.2207 183.306 78.596C181.567 79.9556 179.615 80.991 177.449 81.7024C175.299 82.4138 172.999 82.7695 170.548 82.7695C166.407 82.7695 162.723 81.7577 159.498 79.7343C156.273 77.7108 153.736 74.8336 151.887 71.1028C150.037 67.372 149.112 62.9456 149.112 57.8237C149.112 52.7017 150.037 48.2754 151.887 44.5446C153.736 40.8138 156.273 37.9366 159.498 35.9131C162.723 33.8896 166.407 32.8779 170.548 32.8779C172.999 32.8779 175.299 33.2336 177.449 33.945C179.615 34.6564 181.567 35.6997 183.306 37.075C185.045 38.4346 186.499 40.0945 187.669 42.0547C188.839 43.9992 189.645 46.2203 190.088 48.718ZM213.629 82.8643C210.34 82.8643 207.455 82.0818 204.973 80.5168C202.507 78.9517 200.579 76.7623 199.188 73.9483C197.812 71.1344 197.125 67.8463 197.125 64.0839C197.125 60.2898 197.812 56.9779 199.188 54.1482C200.579 51.3185 202.507 49.1211 204.973 47.5561C207.455 45.991 210.34 45.2085 213.629 45.2085C216.917 45.2085 219.794 45.991 222.26 47.5561C224.742 49.1211 226.671 51.3185 228.046 54.1482C229.437 56.9779 230.133 60.2898 230.133 64.0839C230.133 67.8463 229.437 71.1344 228.046 73.9483C226.671 76.7623 224.742 78.9517 222.26 80.5168C219.794 82.0818 216.917 82.8643 213.629 82.8643ZM213.629 77.8372C216.126 77.8372 218.181 77.197 219.794 75.9165C221.406 74.636 222.6 72.9524 223.375 70.8657C224.149 68.779 224.536 66.5184 224.536 64.0839C224.536 61.6493 224.149 59.3808 223.375 57.2783C222.6 55.1758 221.406 53.4764 219.794 52.1801C218.181 50.8838 216.126 50.2356 213.629 50.2356C211.131 50.2356 209.076 50.8838 207.463 52.1801C205.851 53.4764 204.657 55.1758 203.883 57.2783C203.108 59.3808 202.721 61.6493 202.721 64.0839C202.721 66.5184 203.108 68.779 203.883 70.8657C204.657 72.9524 205.851 74.636 207.463 75.9165C209.076 77.197 211.131 77.8372 213.629 77.8372ZM244.271 60.195V82.1055H238.675V45.6828H244.082V51.3738H244.556C245.41 49.5242 246.706 48.0382 248.445 46.9158C250.184 45.7776 252.429 45.2085 255.179 45.2085C257.645 45.2085 259.803 45.7144 261.653 46.7261C263.502 47.7221 264.941 49.2397 265.968 51.279C266.996 53.3025 267.51 55.8634 267.51 58.9619V82.1055H261.914V59.3413C261.914 56.48 261.171 54.251 259.685 52.6543C258.199 51.0418 256.159 50.2356 253.567 50.2356C251.78 50.2356 250.184 50.6229 248.777 51.3975C247.386 52.1722 246.287 53.3025 245.481 54.7885C244.674 56.2745 244.271 58.0766 244.271 60.195ZM283.332 60.195V82.1055H277.736V45.6828H283.142V51.3738H283.617C284.47 49.5242 285.767 48.0382 287.506 46.9158C289.245 45.7776 291.489 45.2085 294.24 45.2085C296.706 45.2085 298.864 45.7144 300.714 46.7261C302.563 47.7221 304.002 49.2397 305.029 51.279C306.057 53.3025 306.571 55.8634 306.571 58.9619V82.1055H300.974V59.3413C300.974 56.48 300.231 54.251 298.745 52.6543C297.259 51.0418 295.22 50.2356 292.628 50.2356C290.841 50.2356 289.245 50.6229 287.838 51.3975C286.446 52.1722 285.348 53.3025 284.542 54.7885C283.735 56.2745 283.332 58.0766 283.332 60.195ZM332.068 82.8643C328.558 82.8643 325.531 82.0897 322.986 80.5405C320.456 78.9754 318.504 76.7939 317.129 73.9958C315.769 71.1819 315.089 67.9095 315.089 64.1787C315.089 60.4479 315.769 57.1597 317.129 54.3142C318.504 51.4529 320.417 49.2239 322.867 47.6272C325.333 46.0148 328.21 45.2085 331.499 45.2085C333.396 45.2085 335.269 45.5247 337.119 46.157C338.968 46.7894 340.652 47.8169 342.169 49.2397C343.687 50.6466 344.896 52.512 345.797 54.8359C346.698 57.1597 347.149 60.0211 347.149 63.4199V65.7912H319.073V60.9538H341.458C341.458 58.8987 341.047 57.0649 340.225 55.4524C339.419 53.84 338.265 52.5674 336.763 51.6347C335.277 50.702 333.522 50.2356 331.499 50.2356C329.27 50.2356 327.341 50.7889 325.713 51.8955C324.1 52.9863 322.859 54.4091 321.99 56.1638C321.12 57.9185 320.686 59.7998 320.686 61.8074V65.0324C320.686 67.783 321.16 70.1148 322.108 72.0276C323.073 73.9246 324.409 75.3711 326.116 76.367C327.823 77.3472 329.807 77.8372 332.068 77.8372C333.538 77.8372 334.866 77.6317 336.051 77.2207C337.253 76.7939 338.288 76.1615 339.158 75.3237C340.027 74.47 340.699 73.4109 341.173 72.1462L346.58 73.6638C346.011 75.4976 345.054 77.11 343.711 78.5012C342.367 79.8765 340.707 80.9515 338.731 81.7261C336.755 82.4849 334.534 82.8643 332.068 82.8643ZM370.459 82.8643C367.044 82.8643 364.104 82.0581 361.638 80.4456C359.171 78.8332 357.274 76.6121 355.946 73.7824C354.619 70.9526 353.955 67.7198 353.955 64.0839C353.955 60.3847 354.634 57.1202 355.994 54.2905C357.369 51.445 359.282 49.2239 361.732 47.6272C364.198 46.0148 367.076 45.2085 370.364 45.2085C372.925 45.2085 375.233 45.6828 377.288 46.6313C379.343 47.5798 381.027 48.9077 382.339 50.615C383.651 52.3223 384.465 54.3142 384.781 56.5906H379.185C378.758 54.9307 377.81 53.4605 376.339 52.1801C374.885 50.8838 372.925 50.2356 370.459 50.2356C368.277 50.2356 366.364 50.8047 364.72 51.9429C363.092 53.0653 361.819 54.6541 360.902 56.7092C360.001 58.7485 359.551 61.1435 359.551 63.8942C359.551 66.7081 359.993 69.1584 360.879 71.2451C361.78 73.3318 363.044 74.9522 364.673 76.1062C366.317 77.2602 368.245 77.8372 370.459 77.8372C371.913 77.8372 373.233 77.5843 374.419 77.0784C375.604 76.5726 376.608 75.8454 377.43 74.8969C378.252 73.9483 378.837 72.8101 379.185 71.4822H384.781C384.465 73.6322 383.682 75.5687 382.434 77.2918C381.201 78.9992 379.564 80.3587 377.525 81.3704C375.502 82.3664 373.146 82.8643 370.459 82.8643ZM408.802 45.6828V50.4253H389.927V45.6828H408.802ZM395.428 36.9565H401.024V71.6719C401.024 73.2528 401.254 74.4384 401.712 75.2288C402.186 76.0035 402.787 76.5251 403.514 76.7939C404.257 77.0468 405.04 77.1733 405.862 77.1733C406.478 77.1733 406.984 77.1417 407.379 77.0784C407.775 76.9994 408.091 76.9362 408.328 76.8887L409.466 81.9158C409.087 82.0581 408.557 82.2004 407.877 82.3427C407.198 82.5007 406.336 82.5798 405.293 82.5798C403.712 82.5798 402.163 82.2399 400.645 81.5601C399.143 80.8804 397.894 79.8449 396.898 78.4538C395.918 77.0626 395.428 75.3079 395.428 73.1895V36.9565ZM457.058 48.718H451.177C450.829 47.0265 450.22 45.5405 449.351 44.26C448.497 42.9795 447.454 41.9045 446.221 41.0351C445.004 40.1498 443.652 39.4858 442.166 39.0432C440.68 38.6006 439.131 38.3792 437.518 38.3792C434.578 38.3792 431.914 39.1222 429.527 40.6082C427.156 42.0942 425.267 44.2837 423.86 47.1767C422.469 50.0696 421.773 53.6186 421.773 57.8237C421.773 62.0287 422.469 65.5778 423.86 68.4707C425.267 71.3637 427.156 73.5531 429.527 75.0391C431.914 76.5251 434.578 77.2681 437.518 77.2681C439.131 77.2681 440.68 77.0468 442.166 76.6042C443.652 76.1615 445.004 75.5055 446.221 74.636C447.454 73.7507 448.497 72.6679 449.351 71.3874C450.22 70.0911 450.829 68.6051 451.177 66.9294H457.058C456.615 69.4113 455.809 71.6324 454.639 73.5927C453.469 75.5529 452.015 77.2207 450.276 78.596C448.537 79.9556 446.584 80.991 444.419 81.7024C442.269 82.4138 439.969 82.7695 437.518 82.7695C433.376 82.7695 429.693 81.7577 426.468 79.7343C423.243 77.7108 420.706 74.8336 418.856 71.1028C417.007 67.372 416.082 62.9456 416.082 57.8237C416.082 52.7017 417.007 48.2754 418.856 44.5446C420.706 40.8138 423.243 37.9366 426.468 35.9131C429.693 33.8896 433.376 32.8779 437.518 32.8779C439.969 32.8779 442.269 33.2336 444.419 33.945C446.584 34.6564 448.537 35.6997 450.276 37.075C452.015 38.4346 453.469 40.0945 454.639 42.0547C455.809 43.9992 456.615 46.2203 457.058 48.718ZM465.802 82.1055V45.6828H471.398V82.1055H465.802ZM468.647 39.6123C467.556 39.6123 466.616 39.2408 465.825 38.4978C465.051 37.7548 464.663 36.8616 464.663 35.8183C464.663 34.7749 465.051 33.8817 465.825 33.1387C466.616 32.3957 467.556 32.0242 468.647 32.0242C469.738 32.0242 470.671 32.3957 471.445 33.1387C472.236 33.8817 472.631 34.7749 472.631 35.8183C472.631 36.8616 472.236 37.7548 471.445 38.4978C470.671 39.2408 469.738 39.6123 468.647 39.6123ZM481.648 82.1055V45.6828H487.054V51.1841H487.434C488.098 49.382 489.299 47.9197 491.038 46.7973C492.777 45.6749 494.737 45.1137 496.919 45.1137C497.33 45.1137 497.843 45.1216 498.46 45.1374C499.077 45.1532 499.543 45.1769 499.859 45.2085V50.8996C499.669 50.8521 499.235 50.781 498.555 50.6862C497.891 50.5755 497.187 50.5202 496.444 50.5202C494.674 50.5202 493.093 50.8917 491.702 51.6347C490.327 52.3619 489.236 53.3736 488.429 54.6699C487.639 55.9504 487.244 57.4127 487.244 59.0568V82.1055H481.648ZM520.181 82.8643C516.766 82.8643 513.826 82.0581 511.36 80.4456C508.894 78.8332 506.997 76.6121 505.669 73.7824C504.341 70.9526 503.677 67.7198 503.677 64.0839C503.677 60.3847 504.357 57.1202 505.716 54.2905C507.091 51.445 509.004 49.2239 511.455 47.6272C513.921 46.0148 516.798 45.2085 520.086 45.2085C522.647 45.2085 524.955 45.6828 527.01 46.6313C529.065 47.5798 530.749 48.9077 532.061 50.615C533.373 52.3223 534.187 54.3142 534.503 56.5906H528.907C528.48 54.9307 527.532 53.4605 526.062 52.1801C524.607 50.8838 522.647 50.2356 520.181 50.2356C517.999 50.2356 516.086 50.8047 514.442 51.9429C512.814 53.0653 511.542 54.6541 510.625 56.7092C509.724 58.7485 509.273 61.1435 509.273 63.8942C509.273 66.7081 509.716 69.1584 510.601 71.2451C511.502 73.3318 512.767 74.9522 514.395 76.1062C516.039 77.2602 517.968 77.8372 520.181 77.8372C521.635 77.8372 522.955 77.5843 524.141 77.0784C525.327 76.5726 526.33 75.8454 527.152 74.8969C527.974 73.9483 528.559 72.8101 528.907 71.4822H534.503C534.187 73.6322 533.405 75.5687 532.156 77.2918C530.923 78.9992 529.287 80.3587 527.247 81.3704C525.224 82.3664 522.868 82.8643 520.181 82.8643ZM548.28 33.5419V82.1055H542.684V33.5419H548.28ZM573.801 82.8643C570.292 82.8643 567.264 82.0897 564.719 80.5405C562.19 78.9754 560.238 76.7939 558.862 73.9958C557.503 71.1819 556.823 67.9095 556.823 64.1787C556.823 60.4479 557.503 57.1597 558.862 54.3142C560.238 51.4529 562.15 49.2239 564.601 47.6272C567.067 46.0148 569.944 45.2085 573.232 45.2085C575.129 45.2085 577.002 45.5247 578.852 46.157C580.702 46.7894 582.385 47.8169 583.903 49.2397C585.421 50.6466 586.63 52.512 587.531 54.8359C588.432 57.1597 588.883 60.0211 588.883 63.4199V65.7912H560.807V60.9538H583.192C583.192 58.8987 582.78 57.0649 581.958 55.4524C581.152 53.84 579.998 52.5674 578.496 51.6347C577.01 50.702 575.256 50.2356 573.232 50.2356C571.003 50.2356 569.075 50.7889 567.446 51.8955C565.834 52.9863 564.593 54.4091 563.723 56.1638C562.854 57.9185 562.419 59.7998 562.419 61.8074V65.0324C562.419 67.783 562.893 70.1148 563.842 72.0276C564.806 73.9246 566.142 75.3711 567.849 76.367C569.557 77.3472 571.541 77.8372 573.801 77.8372C575.271 77.8372 576.599 77.6317 577.785 77.2207C578.986 76.7939 580.022 76.1615 580.891 75.3237C581.761 74.47 582.433 73.4109 582.907 72.1462L588.313 73.6638C587.744 75.4976 586.788 77.11 585.444 78.5012C584.101 79.8765 582.441 80.9515 580.465 81.7261C578.488 82.4849 576.267 82.8643 573.801 82.8643Z" fill="white"/>
</svg>
